# xmcd
#
# Track frame offsets:
#	150
#	19130
#	36950
#	54742
#	71911
#	89555
#	103117
#	117086
#	132419
#	153234
#	165822
#	180902
#	200625
#	214666
#	228637
#	242588
#	254638
#	274965
#	291373
#	302877
#	317675
#	332839
#
# Disc length: 4584
#
# Revision: 2
# Processed by: cddbd v1.5.1PL0 Copyright (c) Steve Scherf et al.
# Submitted via: audiograbber 1.82.02
# Normalized: r1:DSETVAR1
#
DISCID=4b11e616
DTITLE=Various Artist - Australasian Country Vol. 2
DYEAR=2003
DGENRE=Country
TTITLE0=Lee FORSTER - Kimberley gold
TTITLE1=Ronni Rae RIVERS - You win, you lose
TTITLE2=Dale HOOPER and Country Legends - Miracles are true
TTITLE3=Stephen R. CHENEY - Cause that's the life for me
TTITLE4=Owen BLUNDELL - From New York to Bali
TTITLE5=Steve O'CONNOR - Wolwerton mountain
TTITLE6=Chris NEWMAN - My heart has found its beat
TTITLE7=Josh CANNING - Not strong enough
TTITLE8=Peta EVANS-TAYLOR - I want more
TTITLE9=The COLEMAN BROTHERS - Hold on the one you love
TTITLE10=Peter PRATT - Wild eyed sister
TTITLE11=Tony MARTIN - Streets of London
TTITLE12=Ben RANSOM - Sidney chicks
TTITLE13=Ronni Rae RIVERS - Kickin' the heart around
TTITLE14=Lee FORSTER - Let's get lost
TTITLE15=Kevin GREAVES - Rachel
TTITLE16=Owen BLUNDELL - Today I started loving you again
TTITLE17=The COLEMAN BROTHERS - Baby love me one more time
TTITLE18=Josh CANNING - Sweet talking Daddy
TTITLE19=Dale HOOPER and Country Legends - Lookin' fro an old friend
TTITLE20=Chris NEWMAN - Everything we want
TTITLE21=Steve O'CONNOR - I'm counting on you
EXTD=
EXTT0=
EXTT1=
EXTT2=
EXTT3=
EXTT4=
EXTT5=
EXTT6=
EXTT7=
EXTT8=
EXTT9=
EXTT10=
EXTT11=
EXTT12=
EXTT13=
EXTT14=
EXTT15=
EXTT16=
EXTT17=
EXTT18=
EXTT19=
EXTT20=
EXTT21=
PLAYORDER=
